<?xml version="1.0" encoding="utf-8"?>
<!-- Generator: Adobe Illustrator 14.0.0, SVG Export Plug-In . SVG Version: 6.00 Build 43363)  -->
<!DOCTYPE svg PUBLIC "-//W3C//DTD SVG 1.1//EN" "http://www.w3.org/Graphics/SVG/1.1/DTD/svg11.dtd">
<svg version="1.1" id="Layer_1" xmlns="http://www.w3.org/2000/svg" xmlns:xlink="http://www.w3.org/1999/xlink" x="0px" y="0px"
	 width="217.5px" height="224px" viewBox="0 0 217.5 224" enable-background="new 0 0 217.5 224" xml:space="preserve">
<polygon fill="#B01F2C" points="107.794,7.768 4.525,112.457 107.794,216.857 211.572,112.239 "/>
<polygon fill="#FFFFFF" points="189.141,124.82 185.38,121.081 193.855,112.557 184.919,103.542 188.688,99.811 201.323,112.564 "/>
<g enable-background="new    ">
	<path fill="#FFFFFF" d="M66.4,97.888c-0.534,0-0.971,0.142-1.312,0.425c-0.342,0.283-0.513,0.691-0.513,1.225
		s0.158,0.963,0.475,1.288c0.316,0.325,0.729,0.575,1.237,0.75c0.508,0.175,1.075,0.342,1.7,0.5c0.625,0.158,1.246,0.35,1.862,0.575
		c0.617,0.225,1.179,0.504,1.688,0.837c0.508,0.334,0.921,0.805,1.238,1.413c0.316,0.608,0.475,1.337,0.475,2.188
		c0,1.483-0.604,2.754-1.812,3.812s-2.8,1.587-4.775,1.587s-3.567-0.475-4.775-1.425s-1.812-2.3-1.812-4.05h4.55
		c0.117,1.399,0.833,2.1,2.15,2.1c0.616,0,1.1-0.162,1.45-0.487s0.525-0.737,0.525-1.237s-0.158-0.908-0.475-1.226
		c-0.317-0.316-0.729-0.566-1.238-0.75c-0.508-0.183-1.075-0.354-1.7-0.512c-0.625-0.158-1.246-0.354-1.863-0.588
		c-0.617-0.234-1.179-0.513-1.688-0.838c-0.508-0.324-0.921-0.791-1.237-1.399c-0.317-0.608-0.475-1.329-0.475-2.163
		c0-1.633,0.608-2.941,1.825-3.925c1.216-0.983,2.771-1.475,4.662-1.475s3.421,0.429,4.588,1.287
		c1.166,0.858,1.775,2.213,1.825,4.062h-4.65c-0.067-0.633-0.271-1.12-0.612-1.462C67.371,98.059,66.933,97.888,66.4,97.888z"/>
	<path fill="#FFFFFF" d="M82.549,112.487c-2.033,0-3.7-0.653-5-1.962c-1.3-1.309-1.95-3.046-1.95-5.213
		c0-2.166,0.646-3.892,1.938-5.175c1.292-1.283,2.962-1.925,5.012-1.925c2.05,0,3.75,0.633,5.1,1.899s2.025,3.025,2.025,5.275
		c0,0.483-0.033,0.934-0.1,1.35h-9.6c0.083,0.617,0.358,1.121,0.825,1.513c0.467,0.392,0.971,0.588,1.513,0.588
		s0.946-0.055,1.212-0.163c0.266-0.108,0.462-0.216,0.587-0.325c0.125-0.107,0.288-0.287,0.488-0.537h4.625
		c-0.4,1.4-1.2,2.529-2.4,3.388C85.625,112.059,84.2,112.487,82.549,112.487z M84.375,102.475c-0.5-0.408-1.092-0.612-1.775-0.612
		c-0.684,0-1.259,0.204-1.725,0.612c-0.467,0.409-0.759,0.938-0.875,1.588h5.225C85.158,103.412,84.875,102.884,84.375,102.475z"/>
	<path fill="#FFFFFF" d="M98.349,112.487c-2.033,0-3.7-0.653-5-1.962c-1.3-1.309-1.95-3.046-1.95-5.213
		c0-2.166,0.646-3.892,1.938-5.175c1.292-1.283,2.962-1.925,5.012-1.925c2.05,0,3.75,0.633,5.1,1.899
		c1.35,1.266,2.025,3.025,2.025,5.275c0,0.483-0.033,0.934-0.1,1.35h-9.6c0.083,0.617,0.358,1.121,0.825,1.513
		c0.467,0.392,0.971,0.588,1.513,0.588s0.946-0.055,1.212-0.163c0.266-0.108,0.462-0.216,0.587-0.325
		c0.125-0.107,0.288-0.287,0.488-0.537h4.625c-0.4,1.4-1.2,2.529-2.4,3.388C101.424,112.059,100,112.487,98.349,112.487z
		 M100.174,102.475c-0.5-0.408-1.092-0.612-1.775-0.612c-0.684,0-1.259,0.204-1.725,0.612c-0.467,0.409-0.759,0.938-0.875,1.588
		h5.225C100.958,103.412,100.674,102.884,100.174,102.475z"/>
	<path fill="#FFFFFF" d="M121.648,108.688h1.524v3.625h-2.176c-1.565,0-2.779-0.346-3.638-1.037s-1.286-1.879-1.286-3.562v-5.801
		h-1.302v-3.55h1.302v-3.399h4.274v3.399h2.799v3.55h-2.799v5.801C120.35,108.362,120.781,108.688,121.648,108.688z"/>
	<path fill="#FFFFFF" d="M130.373,93.812v6.6c0.883-1.466,2.291-2.199,4.225-2.199c1.602,0,2.896,0.533,3.889,1.6
		c0.99,1.066,1.486,2.517,1.486,4.35v8.15h-4.25v-7.575c0-0.899-0.236-1.596-0.712-2.087c-0.476-0.492-1.13-0.738-1.962-0.738
		c-0.834,0-1.488,0.246-1.963,0.738c-0.475,0.491-0.713,1.188-0.713,2.087v7.575h-4.275v-18.5L130.373,93.812L130.373,93.812z"/>
	<path fill="#FFFFFF" d="M149.523,112.487c-2.033,0-3.7-0.653-5-1.962c-1.301-1.309-1.95-3.046-1.95-5.213
		c0-2.166,0.646-3.892,1.938-5.175c1.292-1.283,2.962-1.925,5.013-1.925s3.75,0.633,5.101,1.899s2.024,3.025,2.024,5.275
		c0,0.483-0.032,0.934-0.1,1.35h-9.601c0.083,0.617,0.358,1.121,0.825,1.513s0.971,0.588,1.512,0.588
		c0.542,0,0.945-0.055,1.213-0.163c0.268-0.108,0.463-0.216,0.588-0.325c0.125-0.107,0.287-0.287,0.487-0.537h4.625
		c-0.399,1.4-1.2,2.529-2.399,3.388C152.598,112.059,151.174,112.487,149.523,112.487z M151.348,102.475
		c-0.5-0.408-1.092-0.612-1.773-0.612c-0.684,0-1.26,0.204-1.727,0.612c-0.467,0.409-0.758,0.938-0.875,1.588h5.227
		C152.131,103.412,151.848,102.884,151.348,102.475z"/>
	<path fill="#FFFFFF" d="M94.711,121.764h4.6l-4.9,17.549h-4.9l-3.075-11.125l-3.05,11.125h-4.9l-4.975-17.549h4.575l3.05,12.625
		l3.125-12.625h4.85l3,12.424L94.711,121.764z"/>
	<path fill="#FFFFFF" d="M102.474,137.514c-1.408-1.316-2.112-3.051-2.112-5.201c0-2.149,0.7-3.871,2.1-5.162s3.133-1.938,5.2-1.938
		c2.066,0,3.796,0.646,5.188,1.938c1.393,1.291,2.088,3.013,2.088,5.162c0,2.15-0.691,3.885-2.074,5.201
		c-1.385,1.315-3.108,1.975-5.175,1.975C105.62,139.486,103.882,138.829,102.474,137.514z M109.736,134.938
		c0.565-0.6,0.85-1.467,0.85-2.6c0-1.134-0.291-1.996-0.875-2.588c-0.583-0.592-1.274-0.889-2.075-0.889
		c-0.8,0-1.487,0.297-2.062,0.889c-0.575,0.592-0.862,1.454-0.862,2.588c0,1.133,0.295,2,0.887,2.6c0.592,0.601,1.288,0.9,2.088,0.9
		C108.486,135.838,109.169,135.537,109.736,134.938z"/>
	<path fill="#FFFFFF" d="M121.961,125.361v2.602c1-1.834,2.334-2.75,4-2.75v4.35h-1.049c-0.984,0-1.723,0.233-2.213,0.701
		c-0.492,0.467-0.738,1.282-0.738,2.449v6.6h-4.273v-13.949h4.273V125.361z"/>
	<path fill="#FFFFFF" d="M132.561,139.312h-4.273v-18.5h4.273v10.375l4.326-5.826h5.75l-5.976,7.125l5.976,6.826h-5.676l-4.4-5.576
		V139.312z"/>
</g>
</svg>
