<svg id="Layer_1" data-name="Layer 1" xmlns="http://www.w3.org/2000/svg" viewBox="0 0 79.42 61.2"><defs><style>.cls-1{fill:#c41230;}.cls-2{fill:#3a3a3a;}</style></defs><title>Delia_Logo_Website_r2</title><polygon class="cls-1" points="29.67 0 15.49 14.34 29.6 28.64 43.85 14.31 29.67 0"/><path class="cls-2" d="M25.46,44.28H32.6v28H36v.55H28.93V69.37h-.09a10.29,10.29,0,0,1-.53,1.15,4.91,4.91,0,0,1-1,1.31,6.09,6.09,0,0,1-1.71,1.09,6.24,6.24,0,0,1-2.52.45,9.09,9.09,0,0,1-3.66-.75,10.19,10.19,0,0,1-3-2,9.7,9.7,0,0,1-2.08-2.91,8.17,8.17,0,0,1,0-6.87,9.09,9.09,0,0,1,2-2.83,10.17,10.17,0,0,1,2.94-1.94,8.73,8.73,0,0,1,3.55-.73,6.55,6.55,0,0,1,3.9,1.07,5.86,5.86,0,0,1,2,2.59h.09V44.84H25.46ZM17.88,63.75q0,2.06.13,3.74a8.76,8.76,0,0,0,.66,2.87,3.91,3.91,0,0,0,1.58,1.82,5.5,5.5,0,0,0,2.85.63,5.44,5.44,0,0,0,3-.71,5,5,0,0,0,1.73-1.84,7.76,7.76,0,0,0,.83-2.51,17.21,17.21,0,0,0,.22-2.69q0-1.54-.07-2.67a14.49,14.49,0,0,0-.24-2,6.35,6.35,0,0,0-.48-1.5,6.49,6.49,0,0,0-.75-1.19,5.09,5.09,0,0,0-1.71-1.31A6.09,6.09,0,0,0,23,55.88a5.11,5.11,0,0,0-2.52.55A3.85,3.85,0,0,0,18.87,58a7.69,7.69,0,0,0-.77,2.47A21.89,21.89,0,0,0,17.88,63.75Z" transform="translate(-13.58 -19.7)"/><path class="cls-2" d="M39.88,63v1.81A22,22,0,0,0,40,67.59a7.49,7.49,0,0,0,.78,2.57,5,5,0,0,0,1.78,1.9,5.77,5.77,0,0,0,3.14.75,8.66,8.66,0,0,0,3.23-.51,6,6,0,0,0,2-1.25A5.38,5.38,0,0,0,52,69.57a13.07,13.07,0,0,0,.53-1.23l.67.12a10.65,10.65,0,0,1-.51,1.25,5.72,5.72,0,0,1-1.2,1.62,7.32,7.32,0,0,1-2.23,1.42,9.14,9.14,0,0,1-3.63.61,12.91,12.91,0,0,1-4.12-.63,9.63,9.63,0,0,1-3.27-1.82,8.24,8.24,0,0,1-2.14-2.83,8.64,8.64,0,0,1-.76-3.66A7.81,7.81,0,0,1,36.17,61a9.54,9.54,0,0,1,2.14-2.91,10.75,10.75,0,0,1,3.18-2,9.85,9.85,0,0,1,6.59-.38A8.21,8.21,0,0,1,50.72,57a7.25,7.25,0,0,1,2,2.35A7.34,7.34,0,0,1,53.59,63Zm9.17-.55a6.51,6.51,0,0,0,.09-1v-1a7.16,7.16,0,0,0-.29-2.22,3.5,3.5,0,0,0-.8-1.39,2.89,2.89,0,0,0-1.25-.73,5.55,5.55,0,0,0-1.58-.22,5.17,5.17,0,0,0-2.49.53,4.18,4.18,0,0,0-1.56,1.44A6.93,6.93,0,0,0,40.3,60a14.72,14.72,0,0,0-.38,2.49Z" transform="translate(-13.58 -19.7)"/><path class="cls-2" d="M52.66,72.26h3.2V44.84h-3.2v-.55h6.77v28h3.2v.55h-10Z" transform="translate(-13.58 -19.7)"/><path class="cls-2" d="M63.64,72.26h3.2V56.39h-3.2v-.55h6.77V72.26h3.2v.55h-10ZM66,47.4a2,2,0,0,1,.64-1.48,2.29,2.29,0,0,1,3.12,0,2,2,0,0,1,.18,2.82l-.18.18a2.29,2.29,0,0,1-3.12,0A2,2,0,0,1,66,47.4Z" transform="translate(-13.58 -19.7)"/><path class="cls-2" d="M93,72.38a5.77,5.77,0,0,1-1.29.69,5,5,0,0,1-1.83.3,3.57,3.57,0,0,1-4.09-3l0-.13h-.08q-.17.36-.46.89a3.58,3.58,0,0,1-.89,1,5,5,0,0,1-1.6.83,8.07,8.07,0,0,1-2.53.34A8.39,8.39,0,0,1,77.47,73a4.58,4.58,0,0,1-1.62-.93,2.67,2.67,0,0,1-.77-1.25,4.94,4.94,0,0,1-.19-1.29,3.79,3.79,0,0,1,.58-2.22A4.24,4.24,0,0,1,77,66a10.33,10.33,0,0,1,2.08-.81l2.31-.67q1.37-.43,2.26-.75A4.06,4.06,0,0,0,85,63a2.34,2.34,0,0,0,.69-1.15A7.51,7.51,0,0,0,85.9,60a10.45,10.45,0,0,0-.12-1.7,3.49,3.49,0,0,0-.46-1.3,2.1,2.1,0,0,0-1-.81,4.16,4.16,0,0,0-1.66-.28,5,5,0,0,0-2.26.45,1.55,1.55,0,0,0-.89,1.48,7,7,0,0,0,.12,1.33,5.76,5.76,0,0,1,.12,1,1.2,1.2,0,0,1-.42.93,1.74,1.74,0,0,1-1.2.38q-1.37,0-1.7-.47a2.09,2.09,0,0,1-.33-1.23,3.53,3.53,0,0,1,.42-1.66,4.24,4.24,0,0,1,1.23-1.4,6.22,6.22,0,0,1,2-1,10.07,10.07,0,0,1,2.8-.36,9.71,9.71,0,0,1,3.2.46A5.59,5.59,0,0,1,87.9,57,4.43,4.43,0,0,1,89,58.75a6.24,6.24,0,0,1,.33,2V70.6a2.31,2.31,0,0,0,.37,1.54,1.41,1.41,0,0,0,1.08.4,3.15,3.15,0,0,0,1-.16,3.55,3.55,0,0,0,1-.47Zm-7.27-9.26h0q-.08.51-1.37,1l-3.12,1.19a4.53,4.53,0,0,0-2,1.44,3.72,3.72,0,0,0-.71,2.31,6.36,6.36,0,0,0,.12,1.23,3,3,0,0,0,.46,1.13,2.48,2.48,0,0,0,.93.81,3.34,3.34,0,0,0,1.56.32,4,4,0,0,0,2.2-.55,3.69,3.69,0,0,0,1.29-1.38,5.66,5.66,0,0,0,.58-1.8,12,12,0,0,0,.15-1.76Z" transform="translate(-13.58 -19.7)"/><path class="cls-2" d="M54.18,80.9a1.72,1.72,0,0,1-.61-.1,1.42,1.42,0,0,1-.47-.29,1.31,1.31,0,0,1-.31-.43,1.23,1.23,0,0,1-.11-.51,1.13,1.13,0,0,1,.13-.55,1.26,1.26,0,0,1,.38-.42,1.84,1.84,0,0,1,.58-.27,2.75,2.75,0,0,1,.75-.1,4,4,0,0,1,.67.06,3,3,0,0,1,.61.17v-.39a1.26,1.26,0,0,0-.33-.92,1.19,1.19,0,0,0-.89-.34,1.93,1.93,0,0,0-.7.13,3.36,3.36,0,0,0-.71.39L53,77a3.79,3.79,0,0,1,.83-.43,2.49,2.49,0,0,1,.84-.14,1.73,1.73,0,0,1,1.26.46,1.7,1.7,0,0,1,.47,1.27v2q0,.23.2.23v.5h-.23a.51.51,0,0,1-.31-.1.39.39,0,0,1-.15-.3V80.1a1.9,1.9,0,0,1-.75.6A2.24,2.24,0,0,1,54.18,80.9Zm.14-.44a1.85,1.85,0,0,0,.75-.16,1.46,1.46,0,0,0,.59-.45.89.89,0,0,0,.1-.16.38.38,0,0,0,0-.16v-.71a3.51,3.51,0,0,0-.59-.17,3.25,3.25,0,0,0-.6-.06,1.79,1.79,0,0,0-1,.25.77.77,0,0,0-.38.68.91.91,0,0,0,.07.34.86.86,0,0,0,.21.3,1.07,1.07,0,0,0,.34.22A1.23,1.23,0,0,0,54.32,80.46Z" transform="translate(-13.58 -19.7)"/><path class="cls-2" d="M59.08,80.9a3,3,0,0,1-1-.17,2.39,2.39,0,0,1-.84-.49l.26-.39a2.84,2.84,0,0,0,.75.45,2.2,2.2,0,0,0,.82.15,1.47,1.47,0,0,0,.84-.21.69.69,0,0,0,.31-.61.53.53,0,0,0-.08-.31.73.73,0,0,0-.25-.21,1.94,1.94,0,0,0-.41-.16l-.57-.15-.65-.18a2,2,0,0,1-.46-.21.75.75,0,0,1-.27-.29.94.94,0,0,1-.09-.43,1.24,1.24,0,0,1,.13-.58,1.18,1.18,0,0,1,.35-.41,1.6,1.6,0,0,1,.52-.25,2.33,2.33,0,0,1,.63-.08,2.44,2.44,0,0,1,.91.16,1.8,1.8,0,0,1,.66.43l-.28.33a1.53,1.53,0,0,0-.59-.38,2.11,2.11,0,0,0-.72-.13,1.8,1.8,0,0,0-.42,0,1,1,0,0,0-.34.15.72.72,0,0,0-.23.26.75.75,0,0,0-.08.36.6.6,0,0,0,.06.28.5.5,0,0,0,.19.19,1.56,1.56,0,0,0,.34.14l.5.13.74.2a2.32,2.32,0,0,1,.53.23.93.93,0,0,1,.32.33.94.94,0,0,1,.11.47,1.14,1.14,0,0,1-.46,1A2,2,0,0,1,59.08,80.9Z" transform="translate(-13.58 -19.7)"/><path class="cls-2" d="M63.15,80.9a3,3,0,0,1-1-.17,2.39,2.39,0,0,1-.84-.49l.26-.39a2.84,2.84,0,0,0,.75.45,2.2,2.2,0,0,0,.82.15,1.47,1.47,0,0,0,.84-.21.69.69,0,0,0,.31-.61.53.53,0,0,0-.08-.31.73.73,0,0,0-.25-.21,1.94,1.94,0,0,0-.41-.16L63,78.82l-.65-.18a2,2,0,0,1-.46-.21.75.75,0,0,1-.27-.29.94.94,0,0,1-.09-.43,1.24,1.24,0,0,1,.13-.58,1.18,1.18,0,0,1,.35-.41,1.6,1.6,0,0,1,.52-.25,2.33,2.33,0,0,1,.63-.08,2.44,2.44,0,0,1,.91.16,1.8,1.8,0,0,1,.66.43l-.28.33a1.53,1.53,0,0,0-.59-.38,2.11,2.11,0,0,0-.72-.13,1.8,1.8,0,0,0-.42,0,1,1,0,0,0-.34.15.72.72,0,0,0-.23.26.75.75,0,0,0-.08.36.6.6,0,0,0,.06.28.5.5,0,0,0,.19.19,1.56,1.56,0,0,0,.34.14l.5.13.74.2a2.32,2.32,0,0,1,.53.23.93.93,0,0,1,.32.33.94.94,0,0,1,.11.47,1.14,1.14,0,0,1-.46,1A2,2,0,0,1,63.15,80.9Z" transform="translate(-13.58 -19.7)"/><path class="cls-2" d="M67.65,80.9a2.11,2.11,0,0,1-1.56-.67,2.22,2.22,0,0,1-.45-.72,2.36,2.36,0,0,1-.16-.86,2.33,2.33,0,0,1,.16-.87,2.28,2.28,0,0,1,.45-.72,2.18,2.18,0,0,1,.69-.49,2.13,2.13,0,0,1,1.73,0,2.18,2.18,0,0,1,.69.49,2.28,2.28,0,0,1,.45.72,2.42,2.42,0,0,1,0,1.73,2.28,2.28,0,0,1-.45.72,2.12,2.12,0,0,1-.69.49A2.08,2.08,0,0,1,67.65,80.9Zm-1.58-2.24a1.88,1.88,0,0,0,.12.68,1.78,1.78,0,0,0,.34.55,1.53,1.53,0,0,0,.5.37,1.45,1.45,0,0,0,.62.13,1.41,1.41,0,0,0,.62-.14,1.64,1.64,0,0,0,.51-.38,1.79,1.79,0,0,0,.34-.56,1.93,1.93,0,0,0,0-1.37,1.78,1.78,0,0,0-.34-.56,1.65,1.65,0,0,0-.5-.38,1.38,1.38,0,0,0-.61-.14A1.41,1.41,0,0,0,67,77a1.55,1.55,0,0,0-.5.38A1.9,1.9,0,0,0,66,78.64Z" transform="translate(-13.58 -19.7)"/><path class="cls-2" d="M70.46,78.62a2.39,2.39,0,0,1,.16-.87,2.17,2.17,0,0,1,.45-.72,2.09,2.09,0,0,1,.69-.48,2.19,2.19,0,0,1,.89-.18,2,2,0,0,1,1.08.28,1.8,1.8,0,0,1,.69.76l-.55.18a1.34,1.34,0,0,0-.51-.52,1.43,1.43,0,0,0-.73-.19A1.47,1.47,0,0,0,72,77a1.59,1.59,0,0,0-.5.36,1.67,1.67,0,0,0-.34.55,2,2,0,0,0,0,1.39,1.77,1.77,0,0,0,.34.56,1.64,1.64,0,0,0,.51.38,1.41,1.41,0,0,0,.62.14,1.5,1.5,0,0,0,.41-.06,1.59,1.59,0,0,0,.38-.16,1.37,1.37,0,0,0,.3-.24.78.78,0,0,0,.18-.28l.55.17a1.42,1.42,0,0,1-.27.43,1.84,1.84,0,0,1-.41.34,2,2,0,0,1-.53.23,2.25,2.25,0,0,1-.6.08,2.12,2.12,0,0,1-1.57-.67,2.29,2.29,0,0,1-.46-.72A2.35,2.35,0,0,1,70.46,78.62Z" transform="translate(-13.58 -19.7)"/><path class="cls-2" d="M75.35,80.82V76.45h.57v4.36Z" transform="translate(-13.58 -19.7)"/><path class="cls-2" d="M78.3,80.9a1.72,1.72,0,0,1-.61-.1,1.42,1.42,0,0,1-.47-.29,1.31,1.31,0,0,1-.31-.43,1.23,1.23,0,0,1-.11-.51,1.13,1.13,0,0,1,.13-.55,1.26,1.26,0,0,1,.38-.42,1.84,1.84,0,0,1,.58-.27,2.75,2.75,0,0,1,.75-.1,4,4,0,0,1,.67.06,3,3,0,0,1,.61.17v-.39a1.26,1.26,0,0,0-.33-.92,1.19,1.19,0,0,0-.89-.34,1.93,1.93,0,0,0-.7.13,3.36,3.36,0,0,0-.71.39l-.2-.38a3.79,3.79,0,0,1,.83-.43,2.49,2.49,0,0,1,.84-.14,1.73,1.73,0,0,1,1.26.46,1.7,1.7,0,0,1,.47,1.27v2q0,.23.2.23v.5h-.23a.51.51,0,0,1-.31-.1.39.39,0,0,1-.15-.3V80.1a1.9,1.9,0,0,1-.75.6A2.24,2.24,0,0,1,78.3,80.9Zm.14-.44a1.85,1.85,0,0,0,.75-.16,1.46,1.46,0,0,0,.59-.45.89.89,0,0,0,.1-.16.38.38,0,0,0,0-.16v-.71a3.51,3.51,0,0,0-.59-.17,3.25,3.25,0,0,0-.6-.06,1.79,1.79,0,0,0-1,.25.77.77,0,0,0-.38.68.91.91,0,0,0,.07.34.86.86,0,0,0,.21.3,1.07,1.07,0,0,0,.34.22A1.23,1.23,0,0,0,78.44,80.46Z" transform="translate(-13.58 -19.7)"/><path class="cls-2" d="M83.78,80.61l-.15.07-.22.08-.28.08a1.62,1.62,0,0,1-.33,0,1.21,1.21,0,0,1-.35-.05.82.82,0,0,1-.29-.15.76.76,0,0,1-.2-.26.85.85,0,0,1-.08-.37v-3.1h-.6v-.45h.6V75h.57v1.47h1v.45h-1v3a.46.46,0,0,0,.17.36.58.58,0,0,0,.36.11,1.07,1.07,0,0,0,.43-.08l.23-.11Z" transform="translate(-13.58 -19.7)"/><path class="cls-2" d="M86.36,80.9a2.12,2.12,0,0,1-1.57-.67,2.29,2.29,0,0,1-.46-.72,2.35,2.35,0,0,1-.16-.88,2.3,2.3,0,0,1,.16-.87,2.19,2.19,0,0,1,1.15-1.2,2.13,2.13,0,0,1,2.43.49,2.3,2.3,0,0,1,.6,1.57v.13a.44.44,0,0,1,0,.09H84.77A1.85,1.85,0,0,0,85.29,80a1.54,1.54,0,0,0,.49.34,1.49,1.49,0,0,0,.6.12,1.57,1.57,0,0,0,.43-.06,1.68,1.68,0,0,0,.39-.16,1.35,1.35,0,0,0,.3-.24,1.1,1.1,0,0,0,.21-.32l.49.13a1.44,1.44,0,0,1-.28.44,2,2,0,0,1-.43.34,2.09,2.09,0,0,1-.54.23A2.3,2.3,0,0,1,86.36,80.9ZM88,78.41a1.77,1.77,0,0,0-.16-.64,1.75,1.75,0,0,0-.35-.5,1.55,1.55,0,0,0-.5-.33,1.61,1.61,0,0,0-1.21,0,1.54,1.54,0,0,0-.5.33,1.61,1.61,0,0,0-.34.5,1.9,1.9,0,0,0-.15.64Z" transform="translate(-13.58 -19.7)"/><path class="cls-2" d="M90.83,80.9a3,3,0,0,1-1-.17,2.39,2.39,0,0,1-.84-.49l.26-.39a2.84,2.84,0,0,0,.75.45,2.2,2.2,0,0,0,.82.15,1.47,1.47,0,0,0,.84-.21.69.69,0,0,0,.31-.61.53.53,0,0,0-.08-.31.73.73,0,0,0-.25-.21,1.94,1.94,0,0,0-.41-.16l-.57-.15L90,78.63a2,2,0,0,1-.46-.21.75.75,0,0,1-.27-.29.94.94,0,0,1-.09-.43,1.24,1.24,0,0,1,.13-.58,1.18,1.18,0,0,1,.35-.41,1.6,1.6,0,0,1,.52-.25,2.33,2.33,0,0,1,.63-.08,2.44,2.44,0,0,1,.91.16,1.8,1.8,0,0,1,.66.43l-.28.33a1.53,1.53,0,0,0-.59-.38,2.11,2.11,0,0,0-.72-.13,1.8,1.8,0,0,0-.42,0,1,1,0,0,0-.34.15.72.72,0,0,0-.23.26.75.75,0,0,0-.08.36.6.6,0,0,0,.06.28A.5.5,0,0,0,90,78a1.56,1.56,0,0,0,.34.14l.5.13.74.2a2.32,2.32,0,0,1,.53.23.93.93,0,0,1,.32.33.94.94,0,0,1,.11.47,1.14,1.14,0,0,1-.46,1A2,2,0,0,1,90.83,80.9Z" transform="translate(-13.58 -19.7)"/><circle class="cls-2" cx="62.06" cy="55.57" r="0.33"/></svg>